{
  "source": "C:\\Users\\Peter\\Desktop\\stuff\\MIUN\\quantitative_research\\video_compression\\videos\\BVI-HD\\BVI-HD_CDVL_videos\\ORIG\\CarpetCircleFast_1920x1080_60fps.mp4",
  "output": "C:\\Users\\Peter\\Desktop\\stuff\\MIUN\\quantitative_research\\video_compression\\compressed_videos\\BVI-HD\\vp9\\1.5\\CarpetCircleFast_1920x1080_60fps_vp9.webm",
  "codec": "vp9",
  "ok": "Input #0, mov,mp4,m4a,3gp,3g2,mj2, from 'C:\\Users\\Peter\\Desktop\\stuff\\MIUN\\quantitative_research\\video_compression\\videos\\BVI-HD\\BVI-HD_CDVL_videos\\ORIG\\CarpetCircleFast_1920x1080_60fps.mp4':\n  Metadata:\n    major_brand     : isom\n    minor_version   : 512\n    compatible_brands: isomiso2avc1mp41\n    encoder         : Lavf54.28.101\n  Duration: 00:00:05.00, start: 0.000000, bitrate: 324759 kb/s\n  Stream #0:0[0x1](und): Video: h264 (High 4:4:4 Predictive) (avc1 / 0x31637661), yuv420p(progressive), 1920x1080, 324754 kb/s, 60 fps, 60 tbr, 60 tbn (default)\n    Metadata:\n      handler_name    : VideoHandler\n      vendor_id       : [0][0][0][0]\n[out#0/webm @ 000001cdd6ae0e40] Codec AVOption b:a (set bitrate (in bits/s)) has not been used for any stream. The most likely reason is either wrong type (e.g. a video option with no video streams) or that it is a private option of some decoder which was not actually used for any stream.\nStream mapping:\n  Stream #0:0 -> #0:0 (h264 (native) -> vp9 (libvpx-vp9))\nPress [q] to stop, [?] for help\n[libvpx-vp9 @ 000001cdd7514c00] v1.15.2-100-g40561f514\nOutput #0, webm, to 'C:\\Users\\Peter\\Desktop\\stuff\\MIUN\\quantitative_research\\video_compression\\compressed_videos\\BVI-HD\\vp9\\1.5\\CarpetCircleFast_1920x1080_60fps_vp9.webm':\n  Metadata:\n    major_brand     : isom\n    minor_version   : 512\n    compatible_brands: isomiso2avc1mp41\n    encoder         : Lavf62.3.100\n  Stream #0:0(und): Video: vp9, yuv420p(tv, progressive), 1920x1080, q=2-31, 1500 kb/s, 60 fps, 1k tbn (default)\n    Metadata:\n      encoder         : Lavc62.11.100 libvpx-vp9\n      handler_name    : VideoHandler\n      vendor_id       : [0][0][0][0]\n    Side data:\n      cpb: bitrate max/min/avg: 0/0/0 buffer size: 1500000 vbv_delay: N/A\nframe=    1 fps=0.0 q=39.0 size=       1KiB time=00:00:00.01 bitrate= 303.8kbits/s speed=0.0322x elapsed=0:00:00.51    \nframe=   11 fps= 11 q=43.0 size=       1KiB time=00:00:00.18 bitrate=  27.6kbits/s speed=0.177x elapsed=0:00:01.03    \nframe=   18 fps= 11 q=37.0 size=       1KiB time=00:00:00.30 bitrate=  16.9kbits/s speed=0.191x elapsed=0:00:01.57    \nframe=   25 fps= 12 q=28.0 size=       1KiB time=00:00:00.41 bitrate=  12.2kbits/s speed= 0.2x elapsed=0:00:02.08    \nframe=   34 fps= 13 q=36.0 size=       1KiB time=00:00:00.56 bitrate=   8.9kbits/s speed=0.217x elapsed=0:00:02.60    \nframe=   41 fps= 13 q=33.0 size=       1KiB time=00:00:00.68 bitrate=   7.4kbits/s speed=0.218x elapsed=0:00:03.12    \nframe=   48 fps= 13 q=35.0 size=       1KiB time=00:00:00.80 bitrate=   6.3kbits/s speed=0.218x elapsed=0:00:03.66    \nframe=   55 fps= 13 q=36.0 size=       1KiB time=00:00:00.91 bitrate=   5.5kbits/s speed=0.218x elapsed=0:00:04.20    \nframe=   62 fps= 13 q=39.0 size=       1KiB time=00:00:01.03 bitrate=   4.9kbits/s speed=0.219x elapsed=0:00:04.70    \nframe=   69 fps= 13 q=39.0 size=       1KiB time=00:00:01.15 bitrate=   4.4kbits/s speed=0.219x elapsed=0:00:05.24    \nframe=   76 fps= 13 q=38.0 size=       1KiB time=00:00:01.25 bitrate=   4.1kbits/s speed=0.217x elapsed=0:00:05.76    \nframe=   84 fps= 13 q=40.0 size=       1KiB time=00:00:01.40 bitrate=   3.6kbits/s speed=0.222x elapsed=0:00:06.31    \nframe=   91 fps= 13 q=41.0 size=       1KiB time=00:00:01.51 bitrate=   3.3kbits/s speed=0.221x elapsed=0:00:06.86    \nframe=   98 fps= 13 q=42.0 size=       1KiB time=00:00:01.63 bitrate=   3.1kbits/s speed=0.222x elapsed=0:00:07.36    \nframe=  105 fps= 13 q=41.0 size=       1KiB time=00:00:01.75 bitrate=   2.9kbits/s speed=0.222x elapsed=0:00:07.88    \nframe=  112 fps= 13 q=46.0 size=       1KiB time=00:00:01.86 bitrate=   2.7kbits/s speed=0.222x elapsed=0:00:08.41    \nframe=  119 fps= 13 q=39.0 size=       1KiB time=00:00:01.98 bitrate=   2.6kbits/s speed=0.222x elapsed=0:00:08.95    \nframe=  128 fps= 14 q=35.0 size=       1KiB time=00:00:02.13 bitrate=   2.4kbits/s speed=0.225x elapsed=0:00:09.46    \nframe=  137 fps= 14 q=35.0 size=     256KiB time=00:00:02.28 bitrate= 918.5kbits/s speed=0.228x elapsed=0:00:10.00    \nframe=  143 fps= 14 q=34.0 size=     256KiB time=00:00:02.38 bitrate= 879.9kbits/s speed=0.227x elapsed=0:00:10.50    \nframe=  151 fps= 14 q=36.0 size=     256KiB time=00:00:02.51 bitrate= 833.3kbits/s speed=0.228x elapsed=0:00:11.03    \nframe=  160 fps= 14 q=35.0 size=     256KiB time=00:00:02.65 bitrate= 791.4kbits/s speed=0.229x elapsed=0:00:11.56    \nframe=  167 fps= 14 q=33.0 size=     256KiB time=00:00:02.78 bitrate= 753.5kbits/s speed=0.23x elapsed=0:00:12.10    \nframe=  175 fps= 14 q=32.0 size=     256KiB time=00:00:02.91 bitrate= 719.0kbits/s speed=0.231x elapsed=0:00:12.62    \nframe=  183 fps= 14 q=32.0 size=     256KiB time=00:00:03.05 bitrate= 687.6kbits/s speed=0.232x elapsed=0:00:13.17    \nframe=  190 fps= 14 q=30.0 size=     256KiB time=00:00:03.16 bitrate= 662.3kbits/s speed=0.231x elapsed=0:00:13.67    \nframe=  199 fps= 14 q=46.0 size=     256KiB time=00:00:03.31 bitrate= 632.3kbits/s speed=0.233x elapsed=0:00:14.20    \nframe=  207 fps= 14 q=40.0 size=     256KiB time=00:00:03.45 bitrate= 607.9kbits/s speed=0.234x elapsed=0:00:14.75    \nframe=  213 fps= 14 q=44.0 size=     256KiB time=00:00:03.55 bitrate= 590.7kbits/s speed=0.232x elapsed=0:00:15.29    \nframe=  221 fps= 14 q=51.0 size=     256KiB time=00:00:03.68 bitrate= 569.4kbits/s speed=0.233x elapsed=0:00:15.81    \nframe=  228 fps= 14 q=45.0 size=     256KiB time=00:00:03.80 bitrate= 551.9kbits/s speed=0.233x elapsed=0:00:16.33    \nframe=  235 fps= 14 q=36.0 size=     256KiB time=00:00:03.91 bitrate= 535.4kbits/s speed=0.232x elapsed=0:00:16.85    \nframe=  244 fps= 14 q=51.0 size=     256KiB time=00:00:04.06 bitrate= 515.7kbits/s speed=0.234x elapsed=0:00:17.37    \nframe=  251 fps= 14 q=35.0 size=     256KiB time=00:00:04.18 bitrate= 501.3kbits/s speed=0.234x elapsed=0:00:17.91    \nframe=  260 fps= 14 q=33.0 size=     768KiB time=00:00:04.31 bitrate=1457.5kbits/s speed=0.234x elapsed=0:00:18.43    \nframe=  268 fps= 14 q=36.0 size=     768KiB time=00:00:04.46 bitrate=1408.5kbits/s speed=0.235x elapsed=0:00:18.97    \nframe=  276 fps= 14 q=35.0 size=     768KiB time=00:00:04.60 bitrate=1367.7kbits/s speed=0.236x elapsed=0:00:19.49    \nframe=  276 fps= 14 q=35.0 size=     768KiB time=00:00:04.60 bitrate=1367.7kbits/s speed=0.23x elapsed=0:00:20.03    \nframe=  276 fps= 13 q=35.0 size=     768KiB time=00:00:04.60 bitrate=1367.7kbits/s speed=0.224x elapsed=0:00:20.55    \nframe=  276 fps= 13 q=35.0 size=     768KiB time=00:00:04.60 bitrate=1367.7kbits/s speed=0.218x elapsed=0:00:21.08    \n[out#0/webm @ 000001cdd6ae0e40] video:1158KiB audio:0KiB subtitle:0KiB other streams:0KiB global headers:0KiB muxing overhead: 0.239423%\nframe=  300 fps= 14 q=33.0 Lsize=    1161KiB time=00:00:05.00 bitrate=1902.4kbits/s speed=0.237x elapsed=0:00:21.11    \n",
  "seconds": 21.349430561065674,
  "probe_out": {}
}